<?xml version="1.0" encoding="utf-8" standalone="no"?>
<!DOCTYPE svg PUBLIC "-//W3C//DTD SVG 1.1//EN"
  "http://www.w3.org/Graphics/SVG/1.1/DTD/svg11.dtd">
<!-- Created with matplotlib (https://matplotlib.org/) -->
<svg height="345.6pt" version="1.1" viewBox="0 0 460.8 345.6" width="460.8pt" xmlns="http://www.w3.org/2000/svg" xmlns:xlink="http://www.w3.org/1999/xlink">
 <metadata>
  <rdf:RDF xmlns:cc="http://creativecommons.org/ns#" xmlns:dc="http://purl.org/dc/elements/1.1/" xmlns:rdf="http://www.w3.org/1999/02/22-rdf-syntax-ns#">
   <cc:Work>
    <dc:type rdf:resource="http://purl.org/dc/dcmitype/StillImage"/>
    <dc:date>2020-10-07T12:32:24.766379</dc:date>
    <dc:format>image/svg+xml</dc:format>
    <dc:creator>
     <cc:Agent>
      <dc:title>Matplotlib v3.3.2, https://matplotlib.org/</dc:title>
     </cc:Agent>
    </dc:creator>
   </cc:Work>
  </rdf:RDF>
 </metadata>
 <defs>
  <style type="text/css">*{stroke-linecap:butt;stroke-linejoin:round;}</style>
 </defs>
 <g id="figure_1">
  <g id="patch_1">
   <path d="M 0 345.6 
L 460.8 345.6 
L 460.8 0 
L 0 0 
z
" style="fill:#ffffff;"/>
  </g>
  <g id="axes_1">
   <g id="LineCollection_1">
    <path clip-path="url(#pf6cf05680d)" d="M 230.4 172.8 
L 20.945455 236.618182 
" style="fill:none;stroke:#929292;stroke-width:2;"/>
    <path clip-path="url(#pf6cf05680d)" d="M 230.4 172.8 
L 437.69522 198.981818 
" style="fill:none;stroke:#9e9e9e;stroke-width:2;"/>
    <path clip-path="url(#pf6cf05680d)" d="M 230.4 172.8 
L 148.345642 180.981818 
" style="fill:none;stroke:#ebebeb;stroke-width:2;"/>
    <path clip-path="url(#pf6cf05680d)" d="M 230.4 172.8 
L 77.08791 329.890909 
" style="fill:none;stroke:#7b7b7b;stroke-width:2;"/>
    <path clip-path="url(#pf6cf05680d)" d="M 230.4 172.8 
L 303.817057 118.8 
" style="fill:none;stroke:#e1e1e1;stroke-width:2;"/>
    <path clip-path="url(#pf6cf05680d)" d="M 230.4 172.8 
L 141.867666 166.254545 
" style="fill:none;stroke:#e8e8e8;stroke-width:2;"/>
    <path clip-path="url(#pf6cf05680d)" d="M 230.4 172.8 
L 409.623993 306.981818 
" style="fill:none;stroke:#7f7f7f;stroke-width:2;"/>
    <path clip-path="url(#pf6cf05680d)" d="M 230.4 172.8 
L 260.630553 153.163636 
" style="fill:none;stroke:#f9f9f9;stroke-width:2;"/>
    <path clip-path="url(#pf6cf05680d)" d="M 230.4 172.8 
L 131.07104 82.8 
" style="fill:none;stroke:#c5c5c5;stroke-width:2;"/>
    <path clip-path="url(#pf6cf05680d)" d="M 230.4 172.8 
L 236.877976 282.436364 
" style="fill:none;stroke:#cccccc;stroke-width:2;"/>
    <path clip-path="url(#pf6cf05680d)" d="M 20.945455 236.618182 
L 437.69522 198.981818 
" style="fill:none;stroke:#000000;stroke-width:2;"/>
    <path clip-path="url(#pf6cf05680d)" d="M 20.945455 236.618182 
L 148.345642 180.981818 
" style="fill:none;stroke:#cacaca;stroke-width:2;"/>
    <path clip-path="url(#pf6cf05680d)" d="M 20.945455 236.618182 
L 77.08791 329.890909 
" style="fill:none;stroke:#d1d1d1;stroke-width:2;"/>
    <path clip-path="url(#pf6cf05680d)" d="M 20.945455 236.618182 
L 303.817057 118.8 
" style="fill:none;stroke:#505050;stroke-width:2;"/>
    <path clip-path="url(#pf6cf05680d)" d="M 20.945455 236.618182 
L 141.867666 166.254545 
" style="fill:none;stroke:#c7c7c7;stroke-width:2;"/>
    <path clip-path="url(#pf6cf05680d)" d="M 20.945455 236.618182 
L 409.623993 306.981818 
" style="fill:none;stroke:#0e0e0e;stroke-width:2;"/>
    <path clip-path="url(#pf6cf05680d)" d="M 20.945455 236.618182 
L 260.630553 153.163636 
" style="fill:none;stroke:#777777;stroke-width:2;"/>
    <path clip-path="url(#pf6cf05680d)" d="M 20.945455 236.618182 
L 131.07104 82.8 
" style="fill:none;stroke:#8f8f8f;stroke-width:2;"/>
    <path clip-path="url(#pf6cf05680d)" d="M 20.945455 236.618182 
L 236.877976 282.436364 
" style="fill:none;stroke:#939393;stroke-width:2;"/>
    <path clip-path="url(#pf6cf05680d)" d="M 437.69522 198.981818 
L 148.345642 180.981818 
" style="fill:none;stroke:#656565;stroke-width:2;"/>
    <path clip-path="url(#pf6cf05680d)" d="M 437.69522 198.981818 
L 77.08791 329.890909 
" style="fill:none;stroke:#0e0e0e;stroke-width:2;"/>
    <path clip-path="url(#pf6cf05680d)" d="M 437.69522 198.981818 
L 303.817057 118.8 
" style="fill:none;stroke:#bdbdbd;stroke-width:2;"/>
    <path clip-path="url(#pf6cf05680d)" d="M 437.69522 198.981818 
L 141.867666 166.254545 
" style="fill:none;stroke:#606060;stroke-width:2;"/>
    <path clip-path="url(#pf6cf05680d)" d="M 437.69522 198.981818 
L 409.623993 306.981818 
" style="fill:none;stroke:#cbcbcb;stroke-width:2;"/>
    <path clip-path="url(#pf6cf05680d)" d="M 437.69522 198.981818 
L 260.630553 153.163636 
" style="fill:none;stroke:#b0b0b0;stroke-width:2;"/>
    <path clip-path="url(#pf6cf05680d)" d="M 437.69522 198.981818 
L 131.07104 82.8 
" style="fill:none;stroke:#3d3d3d;stroke-width:2;"/>
    <path clip-path="url(#pf6cf05680d)" d="M 437.69522 198.981818 
L 236.877976 282.436364 
" style="fill:none;stroke:#909090;stroke-width:2;"/>
    <path clip-path="url(#pf6cf05680d)" d="M 148.345642 180.981818 
L 77.08791 329.890909 
" style="fill:none;stroke:#9f9f9f;stroke-width:2;"/>
    <path clip-path="url(#pf6cf05680d)" d="M 148.345642 180.981818 
L 303.817057 118.8 
" style="fill:none;stroke:#b9b9b9;stroke-width:2;"/>
    <path clip-path="url(#pf6cf05680d)" d="M 148.345642 180.981818 
L 141.867666 166.254545 
" style="fill:none;stroke:#ffffff;stroke-width:2;"/>
    <path clip-path="url(#pf6cf05680d)" d="M 148.345642 180.981818 
L 409.623993 306.981818 
" style="fill:none;stroke:#585858;stroke-width:2;"/>
    <path clip-path="url(#pf6cf05680d)" d="M 148.345642 180.981818 
L 260.630553 153.163636 
" style="fill:none;stroke:#dadada;stroke-width:2;"/>
    <path clip-path="url(#pf6cf05680d)" d="M 148.345642 180.981818 
L 131.07104 82.8 
" style="fill:none;stroke:#d4d4d4;stroke-width:2;"/>
    <path clip-path="url(#pf6cf05680d)" d="M 148.345642 180.981818 
L 236.877976 282.436364 
" style="fill:none;stroke:#c3c3c3;stroke-width:2;"/>
    <path clip-path="url(#pf6cf05680d)" d="M 77.08791 329.890909 
L 303.817057 118.8 
" style="fill:none;stroke:#2e2e2e;stroke-width:2;"/>
    <path clip-path="url(#pf6cf05680d)" d="M 77.08791 329.890909 
L 141.867666 166.254545 
" style="fill:none;stroke:#929292;stroke-width:2;"/>
    <path clip-path="url(#pf6cf05680d)" d="M 77.08791 329.890909 
L 409.623993 306.981818 
" style="fill:none;stroke:#464646;stroke-width:2;"/>
    <path clip-path="url(#pf6cf05680d)" d="M 77.08791 329.890909 
L 260.630553 153.163636 
" style="fill:none;stroke:#616161;stroke-width:2;"/>
    <path clip-path="url(#pf6cf05680d)" d="M 77.08791 329.890909 
L 131.07104 82.8 
" style="fill:none;stroke:#484848;stroke-width:2;"/>
    <path clip-path="url(#pf6cf05680d)" d="M 77.08791 329.890909 
L 236.877976 282.436364 
" style="fill:none;stroke:#bdbdbd;stroke-width:2;"/>
    <path clip-path="url(#pf6cf05680d)" d="M 303.817057 118.8 
L 141.867666 166.254545 
" style="fill:none;stroke:#bababa;stroke-width:2;"/>
    <path clip-path="url(#pf6cf05680d)" d="M 303.817057 118.8 
L 409.623993 306.981818 
" style="fill:none;stroke:#737373;stroke-width:2;"/>
    <path clip-path="url(#pf6cf05680d)" d="M 303.817057 118.8 
L 260.630553 153.163636 
" style="fill:none;stroke:#f2f2f2;stroke-width:2;"/>
    <path clip-path="url(#pf6cf05680d)" d="M 303.817057 118.8 
L 131.07104 82.8 
" style="fill:none;stroke:#b6b6b6;stroke-width:2;"/>
    <path clip-path="url(#pf6cf05680d)" d="M 303.817057 118.8 
L 236.877976 282.436364 
" style="fill:none;stroke:#929292;stroke-width:2;"/>
    <path clip-path="url(#pf6cf05680d)" d="M 141.867666 166.254545 
L 409.623993 306.981818 
" style="fill:none;stroke:#4d4d4d;stroke-width:2;"/>
    <path clip-path="url(#pf6cf05680d)" d="M 141.867666 166.254545 
L 260.630553 153.163636 
" style="fill:none;stroke:#dadada;stroke-width:2;"/>
    <path clip-path="url(#pf6cf05680d)" d="M 141.867666 166.254545 
L 131.07104 82.8 
" style="fill:none;stroke:#dedede;stroke-width:2;"/>
    <path clip-path="url(#pf6cf05680d)" d="M 141.867666 166.254545 
L 236.877976 282.436364 
" style="fill:none;stroke:#b5b5b5;stroke-width:2;"/>
    <path clip-path="url(#pf6cf05680d)" d="M 409.623993 306.981818 
L 260.630553 153.163636 
" style="fill:none;stroke:#7f7f7f;stroke-width:2;"/>
    <path clip-path="url(#pf6cf05680d)" d="M 409.623993 306.981818 
L 131.07104 82.8 
" style="fill:none;stroke:#090909;stroke-width:2;"/>
    <path clip-path="url(#pf6cf05680d)" d="M 409.623993 306.981818 
L 236.877976 282.436364 
" style="fill:none;stroke:#b9b9b9;stroke-width:2;"/>
    <path clip-path="url(#pf6cf05680d)" d="M 260.630553 153.163636 
L 131.07104 82.8 
" style="fill:none;stroke:#c3c3c3;stroke-width:2;"/>
    <path clip-path="url(#pf6cf05680d)" d="M 260.630553 153.163636 
L 236.877976 282.436364 
" style="fill:none;stroke:#bbbbbb;stroke-width:2;"/>
    <path clip-path="url(#pf6cf05680d)" d="M 131.07104 82.8 
L 236.877976 282.436364 
" style="fill:none;stroke:#6a6a6a;stroke-width:2;"/>
   </g>
   <g id="LineCollection_2">
    <path clip-path="url(#pf6cf05680d)" d="M 230.4 172.8 
L 148.345642 180.981818 
" style="fill:none;stroke:#008000;stroke-opacity:0.5;stroke-width:4;"/>
    <path clip-path="url(#pf6cf05680d)" d="M 20.945455 236.618182 
L 77.08791 329.890909 
" style="fill:none;stroke:#008000;stroke-opacity:0.5;stroke-width:4;"/>
    <path clip-path="url(#pf6cf05680d)" d="M 148.345642 180.981818 
L 141.867666 166.254545 
" style="fill:none;stroke:#008000;stroke-opacity:0.5;stroke-width:4;"/>
    <path clip-path="url(#pf6cf05680d)" d="M 148.345642 180.981818 
L 131.07104 82.8 
" style="fill:none;stroke:#008000;stroke-opacity:0.5;stroke-width:4;"/>
    <path clip-path="url(#pf6cf05680d)" d="M 303.817057 118.8 
L 260.630553 153.163636 
" style="fill:none;stroke:#008000;stroke-opacity:0.5;stroke-width:4;"/>
   </g>
   <g id="text_1">
    <g id="patch_2">
     <path clip-path="url(#pf6cf05680d)" d="M 125.52351 213.167754 
L 131.460319 210.879588 
Q 134.2596 209.800688 133.180701 207.001407 
L 129.700126 197.970809 
Q 128.621226 195.171528 125.821945 196.250428 
L 119.885136 198.538594 
Q 117.085854 199.617493 118.164754 202.416775 
L 121.645329 211.447373 
Q 122.724229 214.246654 125.52351 213.167754 
z
" style="fill:#ffffff;stroke:#ffffff;stroke-linejoin:miter;"/>
    </g>
    <g clip-path="url(#pf6cf05680d)">
     <!-- 0 -->
     <g style="fill:#ff0000;" transform="translate(123.696686 208.42793)rotate(-21.077671)scale(0.1 -0.1)">
      <defs>
       <path d="M 31.78125 66.40625 
Q 24.171875 66.40625 20.328125 58.90625 
Q 16.5 51.421875 16.5 36.375 
Q 16.5 21.390625 20.328125 13.890625 
Q 24.171875 6.390625 31.78125 6.390625 
Q 39.453125 6.390625 43.28125 13.890625 
Q 47.125 21.390625 47.125 36.375 
Q 47.125 51.421875 43.28125 58.90625 
Q 39.453125 66.40625 31.78125 66.40625 
z
M 31.78125 74.21875 
Q 44.046875 74.21875 50.515625 64.515625 
Q 56.984375 54.828125 56.984375 36.375 
Q 56.984375 17.96875 50.515625 8.265625 
Q 44.046875 -1.421875 31.78125 -1.421875 
Q 19.53125 -1.421875 13.0625 8.265625 
Q 6.59375 17.96875 6.59375 36.375 
Q 6.59375 54.828125 13.0625 64.515625 
Q 19.53125 74.21875 31.78125 74.21875 
z
" id="DejaVuSans-48"/>
      </defs>
      <use xlink:href="#DejaVuSans-48"/>
     </g>
    </g>
   </g>
   <g id="text_2">
    <g id="patch_3">
     <path clip-path="url(#pf6cf05680d)" d="M 329.669453 193.1299 
L 335.952271 194.133695 
Q 338.9147 194.606997 339.388002 191.644568 
L 340.914894 182.087649 
Q 341.388196 179.12522 338.425767 178.651918 
L 332.142949 177.648123 
Q 329.18052 177.174821 328.707218 180.13725 
L 327.180326 189.694169 
Q 326.707024 192.656598 329.669453 193.1299 
z
" style="fill:#ffffff;stroke:#ffffff;stroke-linejoin:miter;"/>
    </g>
    <g clip-path="url(#pf6cf05680d)">
     <!-- 1 -->
     <g style="fill:#ff0000;" transform="translate(330.470862 188.113829)rotate(-350.922673)scale(0.1 -0.1)">
      <defs>
       <path d="M 12.40625 8.296875 
L 28.515625 8.296875 
L 28.515625 63.921875 
L 10.984375 60.40625 
L 10.984375 69.390625 
L 28.421875 72.90625 
L 38.28125 72.90625 
L 38.28125 8.296875 
L 54.390625 8.296875 
L 54.390625 0 
L 12.40625 0 
z
" id="DejaVuSans-49"/>
      </defs>
      <use xlink:href="#DejaVuSans-49"/>
     </g>
    </g>
   </g>
   <g id="text_3">
    <g id="patch_4">
     <path clip-path="url(#pf6cf05680d)" d="M 187.197569 185.066454 
L 193.510053 184.270243 
Q 196.48647 183.894819 196.111046 180.918402 
L 194.899913 171.316357 
Q 194.52449 168.339941 191.548073 168.715364 
L 185.235589 169.511576 
Q 182.259172 169.886999 182.634596 172.863416 
L 183.845729 182.465461 
Q 184.221152 185.441878 187.197569 185.066454 
z
" style="fill:#ffffff;stroke:#ffffff;stroke-linejoin:miter;"/>
    </g>
    <g clip-path="url(#pf6cf05680d)">
     <!-- 2 -->
     <g style="fill:#ff0000;" transform="translate(186.561891 180.026698)rotate(-7.188913)scale(0.1 -0.1)">
      <defs>
       <path d="M 19.1875 8.296875 
L 53.609375 8.296875 
L 53.609375 0 
L 7.328125 0 
L 7.328125 8.296875 
Q 12.9375 14.109375 22.625 23.890625 
Q 32.328125 33.6875 34.8125 36.53125 
Q 39.546875 41.84375 41.421875 45.53125 
Q 43.3125 49.21875 43.3125 52.78125 
Q 43.3125 58.59375 39.234375 62.25 
Q 35.15625 65.921875 28.609375 65.921875 
Q 23.96875 65.921875 18.8125 64.3125 
Q 13.671875 62.703125 7.8125 59.421875 
L 7.8125 69.390625 
Q 13.765625 71.78125 18.9375 73 
Q 24.125 74.21875 28.421875 74.21875 
Q 39.75 74.21875 46.484375 68.546875 
Q 53.21875 62.890625 53.21875 53.421875 
Q 53.21875 48.921875 51.53125 44.890625 
Q 49.859375 40.875 45.40625 35.40625 
Q 44.1875 33.984375 37.640625 27.21875 
Q 31.109375 20.453125 19.1875 8.296875 
z
" id="DejaVuSans-50"/>
      </defs>
      <use xlink:href="#DejaVuSans-50"/>
     </g>
    </g>
   </g>
   <g id="text_4">
    <g id="patch_5">
     <path clip-path="url(#pf6cf05680d)" d="M 158.007262 258.652675 
L 161.893778 253.615175 
Q 163.72632 251.23993 161.351075 249.407388 
L 153.688435 243.495531 
Q 151.31319 241.662989 149.480648 244.038234 
L 145.594132 249.075734 
Q 143.76159 251.450979 146.136835 253.283521 
L 153.799475 259.195378 
Q 156.17472 261.02792 158.007262 258.652675 
z
" style="fill:#ffffff;stroke:#ffffff;stroke-linejoin:miter;"/>
    </g>
    <g clip-path="url(#pf6cf05680d)">
     <!-- 3 -->
     <g style="fill:#ff0000;" transform="translate(153.985428 255.549761)rotate(-52.349204)scale(0.1 -0.1)">
      <defs>
       <path d="M 40.578125 39.3125 
Q 47.65625 37.796875 51.625 33 
Q 55.609375 28.21875 55.609375 21.1875 
Q 55.609375 10.40625 48.1875 4.484375 
Q 40.765625 -1.421875 27.09375 -1.421875 
Q 22.515625 -1.421875 17.65625 -0.515625 
Q 12.796875 0.390625 7.625 2.203125 
L 7.625 11.71875 
Q 11.71875 9.328125 16.59375 8.109375 
Q 21.484375 6.890625 26.8125 6.890625 
Q 36.078125 6.890625 40.9375 10.546875 
Q 45.796875 14.203125 45.796875 21.1875 
Q 45.796875 27.640625 41.28125 31.265625 
Q 36.765625 34.90625 28.71875 34.90625 
L 20.21875 34.90625 
L 20.21875 43.015625 
L 29.109375 43.015625 
Q 36.375 43.015625 40.234375 45.921875 
Q 44.09375 48.828125 44.09375 54.296875 
Q 44.09375 59.90625 40.109375 62.90625 
Q 36.140625 65.921875 28.71875 65.921875 
Q 24.65625 65.921875 20.015625 65.03125 
Q 15.375 64.15625 9.8125 62.3125 
L 9.8125 71.09375 
Q 15.4375 72.65625 20.34375 73.4375 
Q 25.25 74.21875 29.59375 74.21875 
Q 40.828125 74.21875 47.359375 69.109375 
Q 53.90625 64.015625 53.90625 55.328125 
Q 53.90625 49.265625 50.4375 45.09375 
Q 46.96875 40.921875 40.578125 39.3125 
z
" id="DejaVuSans-51"/>
      </defs>
      <use xlink:href="#DejaVuSans-51"/>
     </g>
    </g>
   </g>
   <g id="text_5">
    <g id="patch_6">
     <path clip-path="url(#pf6cf05680d)" d="M 270.119249 153.706125 
L 274.777363 149.372146 
Q 276.973724 147.32862 274.930197 145.132259 
L 268.337696 138.046709 
Q 266.294169 135.850348 264.097809 137.893875 
L 259.439694 142.227854 
Q 257.243333 144.27138 259.28686 146.467741 
L 265.879362 153.553291 
Q 267.922888 155.749652 270.119249 153.706125 
z
" style="fill:#ffffff;stroke:#ffffff;stroke-linejoin:miter;"/>
    </g>
    <g clip-path="url(#pf6cf05680d)">
     <!-- 4 -->
     <g style="fill:#ff0000;" transform="translate(266.65909 149.987184)rotate(-42.935569)scale(0.1 -0.1)">
      <defs>
       <path d="M 37.796875 64.3125 
L 12.890625 25.390625 
L 37.796875 25.390625 
z
M 35.203125 72.90625 
L 47.609375 72.90625 
L 47.609375 25.390625 
L 58.015625 25.390625 
L 58.015625 17.1875 
L 47.609375 17.1875 
L 47.609375 0 
L 37.796875 0 
L 37.796875 17.1875 
L 4.890625 17.1875 
L 4.890625 26.703125 
z
" id="DejaVuSans-52"/>
      </defs>
      <use xlink:href="#DejaVuSans-52"/>
     </g>
    </g>
   </g>
   <g id="text_6">
    <g id="patch_7">
     <path clip-path="url(#pf6cf05680d)" d="M 182.236459 177.036049 
L 188.571315 177.628503 
Q 191.558281 177.907853 191.83763 174.920887 
L 192.738824 165.284811 
Q 193.018173 162.297846 190.031208 162.018496 
L 183.696351 161.426042 
Q 180.709386 161.146693 180.430036 164.133658 
L 179.528843 173.769734 
Q 179.249493 176.7567 182.236459 177.036049 
z
" style="fill:#ffffff;stroke:#ffffff;stroke-linejoin:miter;"/>
    </g>
    <g clip-path="url(#pf6cf05680d)">
     <!-- 5 -->
     <g style="fill:#ff0000;" transform="translate(182.709462 171.978432)rotate(-354.657076)scale(0.1 -0.1)">
      <defs>
       <path d="M 10.796875 72.90625 
L 49.515625 72.90625 
L 49.515625 64.59375 
L 19.828125 64.59375 
L 19.828125 46.734375 
Q 21.96875 47.46875 24.109375 47.828125 
Q 26.265625 48.1875 28.421875 48.1875 
Q 40.625 48.1875 47.75 41.5 
Q 54.890625 34.8125 54.890625 23.390625 
Q 54.890625 11.625 47.5625 5.09375 
Q 40.234375 -1.421875 26.90625 -1.421875 
Q 22.3125 -1.421875 17.546875 -0.640625 
Q 12.796875 0.140625 7.71875 1.703125 
L 7.71875 11.625 
Q 12.109375 9.234375 16.796875 8.0625 
Q 21.484375 6.890625 26.703125 6.890625 
Q 35.15625 6.890625 40.078125 11.328125 
Q 45.015625 15.765625 45.015625 23.390625 
Q 45.015625 31 40.078125 35.4375 
Q 35.15625 39.890625 26.703125 39.890625 
Q 22.75 39.890625 18.8125 39.015625 
Q 14.890625 38.140625 10.796875 36.28125 
z
" id="DejaVuSans-53"/>
      </defs>
      <use xlink:href="#DejaVuSans-53"/>
     </g>
    </g>
   </g>
   <g id="text_7">
    <g id="patch_8">
     <path clip-path="url(#pf6cf05680d)" d="M 312.311856 243.395063 
L 316.931442 247.770086 
Q 319.109635 249.832966 321.172515 247.654772 
L 327.827451 240.627829 
Q 329.89033 238.449635 327.712137 236.386756 
L 323.092551 232.011732 
Q 320.914357 229.948852 318.851477 232.127046 
L 312.196542 239.153989 
Q 310.133662 241.332183 312.311856 243.395063 
z
" style="fill:#ffffff;stroke:#ffffff;stroke-linejoin:miter;"/>
    </g>
    <g clip-path="url(#pf6cf05680d)">
     <!-- 6 -->
     <g style="fill:#ff0000;" transform="translate(315.804784 239.706882)rotate(-316.557479)scale(0.1 -0.1)">
      <defs>
       <path d="M 33.015625 40.375 
Q 26.375 40.375 22.484375 35.828125 
Q 18.609375 31.296875 18.609375 23.390625 
Q 18.609375 15.53125 22.484375 10.953125 
Q 26.375 6.390625 33.015625 6.390625 
Q 39.65625 6.390625 43.53125 10.953125 
Q 47.40625 15.53125 47.40625 23.390625 
Q 47.40625 31.296875 43.53125 35.828125 
Q 39.65625 40.375 33.015625 40.375 
z
M 52.59375 71.296875 
L 52.59375 62.3125 
Q 48.875 64.0625 45.09375 64.984375 
Q 41.3125 65.921875 37.59375 65.921875 
Q 27.828125 65.921875 22.671875 59.328125 
Q 17.53125 52.734375 16.796875 39.40625 
Q 19.671875 43.65625 24.015625 45.921875 
Q 28.375 48.1875 33.59375 48.1875 
Q 44.578125 48.1875 50.953125 41.515625 
Q 57.328125 34.859375 57.328125 23.390625 
Q 57.328125 12.15625 50.6875 5.359375 
Q 44.046875 -1.421875 33.015625 -1.421875 
Q 20.359375 -1.421875 13.671875 8.265625 
Q 6.984375 17.96875 6.984375 36.375 
Q 6.984375 53.65625 15.1875 63.9375 
Q 23.390625 74.21875 37.203125 74.21875 
Q 40.921875 74.21875 44.703125 73.484375 
Q 48.484375 72.75 52.59375 71.296875 
z
" id="DejaVuSans-54"/>
      </defs>
      <use xlink:href="#DejaVuSans-54"/>
     </g>
    </g>
   </g>
   <g id="text_8">
    <g id="patch_9">
     <path clip-path="url(#pf6cf05680d)" d="M 248.033944 171.058177 
L 252.949844 167.018953 
Q 255.267754 165.114407 253.363208 162.796498 
L 247.219065 155.318824 
Q 245.314519 153.000914 242.996609 154.90546 
L 238.080709 158.944683 
Q 235.762799 160.849229 237.667345 163.167139 
L 243.811488 170.644813 
Q 245.716034 172.962722 248.033944 171.058177 
z
" style="fill:#ffffff;stroke:#ffffff;stroke-linejoin:miter;"/>
    </g>
    <g clip-path="url(#pf6cf05680d)">
     <!-- 7 -->
     <g style="fill:#ff0000;" transform="translate(244.809111 167.133424)rotate(-39.408751)scale(0.1 -0.1)">
      <defs>
       <path d="M 8.203125 72.90625 
L 55.078125 72.90625 
L 55.078125 68.703125 
L 28.609375 0 
L 18.3125 0 
L 43.21875 64.59375 
L 8.203125 64.59375 
z
" id="DejaVuSans-55"/>
      </defs>
      <use xlink:href="#DejaVuSans-55"/>
     </g>
    </g>
   </g>
   <g id="text_9">
    <g id="patch_10">
     <path clip-path="url(#pf6cf05680d)" d="M 172.737203 130.556479 
L 176.920081 135.35074 
Q 178.892361 137.611295 181.152917 135.639015 
L 188.445562 129.276356 
Q 190.706118 127.304076 188.733837 125.043521 
L 184.550959 120.24926 
Q 182.578679 117.988705 180.318124 119.960985 
L 173.025478 126.323644 
Q 170.764923 128.295924 172.737203 130.556479 
z
" style="fill:#ffffff;stroke:#ffffff;stroke-linejoin:miter;"/>
    </g>
    <g clip-path="url(#pf6cf05680d)">
     <!-- 8 -->
     <g style="fill:#ff0000;" transform="translate(176.564841 127.216957)rotate(-311.103919)scale(0.1 -0.1)">
      <defs>
       <path d="M 31.78125 34.625 
Q 24.75 34.625 20.71875 30.859375 
Q 16.703125 27.09375 16.703125 20.515625 
Q 16.703125 13.921875 20.71875 10.15625 
Q 24.75 6.390625 31.78125 6.390625 
Q 38.8125 6.390625 42.859375 10.171875 
Q 46.921875 13.96875 46.921875 20.515625 
Q 46.921875 27.09375 42.890625 30.859375 
Q 38.875 34.625 31.78125 34.625 
z
M 21.921875 38.8125 
Q 15.578125 40.375 12.03125 44.71875 
Q 8.5 49.078125 8.5 55.328125 
Q 8.5 64.0625 14.71875 69.140625 
Q 20.953125 74.21875 31.78125 74.21875 
Q 42.671875 74.21875 48.875 69.140625 
Q 55.078125 64.0625 55.078125 55.328125 
Q 55.078125 49.078125 51.53125 44.71875 
Q 48 40.375 41.703125 38.8125 
Q 48.828125 37.15625 52.796875 32.3125 
Q 56.78125 27.484375 56.78125 20.515625 
Q 56.78125 9.90625 50.3125 4.234375 
Q 43.84375 -1.421875 31.78125 -1.421875 
Q 19.734375 -1.421875 13.25 4.234375 
Q 6.78125 9.90625 6.78125 20.515625 
Q 6.78125 27.484375 10.78125 32.3125 
Q 14.796875 37.15625 21.921875 38.8125 
z
M 18.3125 54.390625 
Q 18.3125 48.734375 21.84375 45.5625 
Q 25.390625 42.390625 31.78125 42.390625 
Q 38.140625 42.390625 41.71875 45.5625 
Q 45.3125 48.734375 45.3125 54.390625 
Q 45.3125 60.0625 41.71875 63.234375 
Q 38.140625 66.40625 31.78125 66.40625 
Q 25.390625 66.40625 21.84375 63.234375 
Q 18.3125 60.0625 18.3125 54.390625 
z
" id="DejaVuSans-56"/>
      </defs>
      <use xlink:href="#DejaVuSans-56"/>
     </g>
    </g>
   </g>
   <g id="text_10">
    <g id="patch_11">
     <path clip-path="url(#pf6cf05680d)" d="M 225.66003 224.806156 
L 225.956896 231.161727 
Q 226.096871 234.158459 229.093604 234.018484 
L 238.761188 233.566916 
Q 241.757921 233.42694 241.617945 230.430208 
L 241.32108 224.074637 
Q 241.181104 221.077904 238.184372 221.21788 
L 228.516787 221.669448 
Q 225.520054 221.809423 225.66003 224.806156 
z
" style="fill:#ffffff;stroke:#ffffff;stroke-linejoin:miter;"/>
    </g>
    <g clip-path="url(#pf6cf05680d)">
     <!-- 9 -->
     <g style="fill:#ff0000;" transform="translate(230.734185 224.569145)rotate(-272.674311)scale(0.1 -0.1)">
      <defs>
       <path d="M 10.984375 1.515625 
L 10.984375 10.5 
Q 14.703125 8.734375 18.5 7.8125 
Q 22.3125 6.890625 25.984375 6.890625 
Q 35.75 6.890625 40.890625 13.453125 
Q 46.046875 20.015625 46.78125 33.40625 
Q 43.953125 29.203125 39.59375 26.953125 
Q 35.25 24.703125 29.984375 24.703125 
Q 19.046875 24.703125 12.671875 31.3125 
Q 6.296875 37.9375 6.296875 49.421875 
Q 6.296875 60.640625 12.9375 67.421875 
Q 19.578125 74.21875 30.609375 74.21875 
Q 43.265625 74.21875 49.921875 64.515625 
Q 56.59375 54.828125 56.59375 36.375 
Q 56.59375 19.140625 48.40625 8.859375 
Q 40.234375 -1.421875 26.421875 -1.421875 
Q 22.703125 -1.421875 18.890625 -0.6875 
Q 15.09375 0.046875 10.984375 1.515625 
z
M 30.609375 32.421875 
Q 37.25 32.421875 41.125 36.953125 
Q 45.015625 41.5 45.015625 49.421875 
Q 45.015625 57.28125 41.125 61.84375 
Q 37.25 66.40625 30.609375 66.40625 
Q 23.96875 66.40625 20.09375 61.84375 
Q 16.21875 57.28125 16.21875 49.421875 
Q 16.21875 41.5 20.09375 36.953125 
Q 23.96875 32.421875 30.609375 32.421875 
z
" id="DejaVuSans-57"/>
      </defs>
      <use xlink:href="#DejaVuSans-57"/>
     </g>
    </g>
   </g>
   <g id="text_11">
    <g id="patch_12">
     <path clip-path="url(#pf6cf05680d)" d="M 223.888687 226.310551 
L 236.531458 224.866261 
Q 239.512072 224.525761 239.171571 221.545147 
L 238.073102 211.929562 
Q 237.732602 208.948948 234.751988 209.289449 
L 222.109217 210.733739 
Q 219.128603 211.074239 219.469104 214.054853 
L 220.567573 223.670438 
Q 220.908073 226.651052 223.888687 226.310551 
z
" style="fill:#ffffff;stroke:#ffffff;stroke-linejoin:miter;"/>
    </g>
    <g clip-path="url(#pf6cf05680d)">
     <!-- 10 -->
     <g style="fill:#ff0000;" transform="translate(223.312142 221.263689)rotate(-6.517126)scale(0.1 -0.1)">
      <use xlink:href="#DejaVuSans-49"/>
      <use x="63.623047" xlink:href="#DejaVuSans-48"/>
     </g>
    </g>
   </g>
   <g id="text_12">
    <g id="patch_13">
     <path clip-path="url(#pf6cf05680d)" d="M 82.86685 218.738236 
L 94.005302 212.585145 
Q 96.631263 211.134515 95.180632 208.508554 
L 90.500838 200.037094 
Q 89.050207 197.411133 86.424246 198.861764 
L 75.285795 205.014855 
Q 72.659834 206.465485 74.110464 209.091446 
L 78.790259 217.562906 
Q 80.240889 220.188867 82.86685 218.738236 
z
" style="fill:#ffffff;stroke:#ffffff;stroke-linejoin:miter;"/>
    </g>
    <g clip-path="url(#pf6cf05680d)">
     <!-- 11 -->
     <g style="fill:#ff0000;" transform="translate(80.4106 214.291883)rotate(-28.91709)scale(0.1 -0.1)">
      <use xlink:href="#DejaVuSans-49"/>
      <use x="63.623047" xlink:href="#DejaVuSans-49"/>
     </g>
    </g>
   </g>
   <g id="text_13">
    <g id="patch_14">
     <path clip-path="url(#pf6cf05680d)" d="M 39.204337 280.877532 
L 44.671917 292.368015 
Q 45.960934 295.076969 48.669889 293.787953 
L 57.409089 289.62953 
Q 60.118044 288.340514 58.829027 285.631559 
L 53.361447 274.141076 
Q 52.07243 271.432121 49.363476 272.721138 
L 40.624275 276.87956 
Q 37.91532 278.168577 39.204337 280.877532 
z
" style="fill:#ffffff;stroke:#ffffff;stroke-linejoin:miter;"/>
    </g>
    <g clip-path="url(#pf6cf05680d)">
     <!-- 12 -->
     <g style="fill:#ff0000;" transform="translate(43.791218 278.694931)rotate(-295.446765)scale(0.1 -0.1)">
      <use xlink:href="#DejaVuSans-49"/>
      <use x="63.623047" xlink:href="#DejaVuSans-50"/>
     </g>
    </g>
   </g>
   <g id="text_14">
    <g id="patch_15">
     <path clip-path="url(#pf6cf05680d)" d="M 160.406269 187.610188 
L 171.664284 181.678687 
Q 174.318433 180.280297 172.920044 177.626148 
L 168.408781 169.063753 
Q 167.010392 166.409604 164.356243 167.807993 
L 153.098227 173.739495 
Q 150.444078 175.137885 151.842468 177.792034 
L 156.35373 186.354429 
Q 157.75212 189.008578 160.406269 187.610188 
z
" style="fill:#ffffff;stroke:#ffffff;stroke-linejoin:miter;"/>
    </g>
    <g clip-path="url(#pf6cf05680d)">
     <!-- 13 -->
     <g style="fill:#ff0000;" transform="translate(158.038475 183.116106)rotate(-27.783366)scale(0.1 -0.1)">
      <use xlink:href="#DejaVuSans-49"/>
      <use x="63.623047" xlink:href="#DejaVuSans-51"/>
     </g>
    </g>
   </g>
   <g id="text_15">
    <g id="patch_16">
     <path clip-path="url(#pf6cf05680d)" d="M 80.929501 211.52124 
L 91.17759 203.977878 
Q 93.593642 202.199482 91.815246 199.78343 
L 86.078068 191.989144 
Q 84.299672 189.573092 81.88362 191.351488 
L 71.635531 198.894849 
Q 69.219479 200.673245 70.997875 203.089297 
L 76.735053 210.883583 
Q 78.513449 213.299635 80.929501 211.52124 
z
" style="fill:#ffffff;stroke:#ffffff;stroke-linejoin:miter;"/>
    </g>
    <g clip-path="url(#pf6cf05680d)">
     <!-- 14 -->
     <g style="fill:#ff0000;" transform="translate(77.91827 207.430309)rotate(-36.355855)scale(0.1 -0.1)">
      <use xlink:href="#DejaVuSans-49"/>
      <use x="63.623047" xlink:href="#DejaVuSans-52"/>
     </g>
    </g>
   </g>
   <g id="text_16">
    <g id="patch_17">
     <path clip-path="url(#pf6cf05680d)" d="M 207.332908 278.021008 
L 219.736824 280.861518 
Q 222.661126 281.531187 223.330795 278.606884 
L 225.491173 269.172963 
Q 226.160841 266.248661 223.236539 265.578992 
L 210.832623 262.738482 
Q 207.908321 262.068813 207.238653 264.993116 
L 205.078274 274.427037 
Q 204.408606 277.351339 207.332908 278.021008 
z
" style="fill:#ffffff;stroke:#ffffff;stroke-linejoin:miter;"/>
    </g>
    <g clip-path="url(#pf6cf05680d)">
     <!-- 15 -->
     <g style="fill:#ff0000;" transform="translate(208.46681 273.069494)rotate(-347.101604)scale(0.1 -0.1)">
      <use xlink:href="#DejaVuSans-49"/>
      <use x="63.623047" xlink:href="#DejaVuSans-53"/>
     </g>
    </g>
   </g>
   <g id="text_17">
    <g id="patch_18">
     <path clip-path="url(#pf6cf05680d)" d="M 138.125011 204.629532 
L 149.770496 199.50037 
Q 152.515994 198.291138 151.306761 195.54564 
L 147.405726 186.688551 
Q 146.196494 183.943053 143.450996 185.152286 
L 131.805511 190.281448 
Q 129.060014 191.490681 130.269246 194.236178 
L 134.170281 203.093267 
Q 135.379514 205.838765 138.125011 204.629532 
z
" style="fill:#ffffff;stroke:#ffffff;stroke-linejoin:miter;"/>
    </g>
    <g clip-path="url(#pf6cf05680d)">
     <!-- 16 -->
     <g style="fill:#ff0000;" transform="translate(136.077503 199.980776)rotate(-23.770713)scale(0.1 -0.1)">
      <use xlink:href="#DejaVuSans-49"/>
      <use x="63.623047" xlink:href="#DejaVuSans-54"/>
     </g>
    </g>
   </g>
   <g id="text_18">
    <g id="patch_19">
     <path clip-path="url(#pf6cf05680d)" d="M 79.696504 169.107446 
L 85.964328 158.033151 
Q 87.442007 155.422315 84.831171 153.944635 
L 76.408506 149.17758 
Q 73.797671 147.6999 72.319991 150.310736 
L 66.052167 161.385031 
Q 64.574488 163.995867 67.185324 165.473546 
L 75.607988 170.240602 
Q 78.218824 171.718281 79.696504 169.107446 
z
" style="fill:#ffffff;stroke:#ffffff;stroke-linejoin:miter;"/>
    </g>
    <g clip-path="url(#pf6cf05680d)">
     <!-- 17 -->
     <g style="fill:#ff0000;" transform="translate(75.27576 166.605396)rotate(-60.491029)scale(0.1 -0.1)">
      <use xlink:href="#DejaVuSans-49"/>
      <use x="63.623047" xlink:href="#DejaVuSans-55"/>
     </g>
    </g>
   </g>
   <g id="text_19">
    <g id="patch_20">
     <path clip-path="url(#pf6cf05680d)" d="M 120.734564 265.44897 
L 133.024551 268.747733 
Q 135.921994 269.525437 136.699698 266.627994 
L 139.208605 257.280723 
Q 139.98631 254.38328 137.088867 253.605575 
L 124.798879 250.306812 
Q 121.901436 249.529108 121.123732 252.426551 
L 118.614825 261.773823 
Q 117.837121 264.671266 120.734564 265.44897 
z
" style="fill:#ffffff;stroke:#ffffff;stroke-linejoin:miter;"/>
    </g>
    <g clip-path="url(#pf6cf05680d)">
     <!-- 18 -->
     <g style="fill:#ff0000;" transform="translate(122.051395 260.542935)rotate(-344.975337)scale(0.1 -0.1)">
      <use xlink:href="#DejaVuSans-49"/>
      <use x="63.623047" xlink:href="#DejaVuSans-56"/>
     </g>
    </g>
   </g>
   <g id="text_20">
    <g id="patch_21">
     <path clip-path="url(#pf6cf05680d)" d="M 286.062571 197.297588 
L 298.748354 198.295855 
Q 301.739108 198.531203 301.974456 195.540449 
L 302.733698 185.892151 
Q 302.969046 182.901396 299.978291 182.666048 
L 287.292509 181.667781 
Q 284.301754 181.432433 284.066406 184.423188 
L 283.307164 194.071486 
Q 283.071816 197.06224 286.062571 197.297588 
z
" style="fill:#ffffff;stroke:#ffffff;stroke-linejoin:miter;"/>
    </g>
    <g clip-path="url(#pf6cf05680d)">
     <!-- 19 -->
     <g style="fill:#ff0000;" transform="translate(286.461069 192.233555)rotate(-355.500564)scale(0.1 -0.1)">
      <use xlink:href="#DejaVuSans-49"/>
      <use x="63.623047" xlink:href="#DejaVuSans-57"/>
     </g>
    </g>
   </g>
   <g id="text_21">
    <g id="patch_22">
     <path clip-path="url(#pf6cf05680d)" d="M 254.880937 274.215374 
L 266.444926 268.905028 
Q 269.17121 267.65308 267.919262 264.926796 
L 263.880426 256.131689 
Q 262.628478 253.405405 259.902194 254.657353 
L 248.338204 259.967699 
Q 245.61192 261.219647 246.863868 263.945931 
L 250.902704 272.741038 
Q 252.154652 275.467322 254.880937 274.215374 
z
" style="fill:#ffffff;stroke:#ffffff;stroke-linejoin:miter;"/>
    </g>
    <g clip-path="url(#pf6cf05680d)">
     <!-- 20 -->
     <g style="fill:#ff0000;" transform="translate(252.761102 269.59915)rotate(-24.665251)scale(0.1 -0.1)">
      <use xlink:href="#DejaVuSans-50"/>
      <use x="63.623047" xlink:href="#DejaVuSans-48"/>
     </g>
    </g>
   </g>
   <g id="text_22">
    <g id="patch_23">
     <path clip-path="url(#pf6cf05680d)" d="M 360.950909 161.297103 
L 371.093736 168.981416 
Q 373.484973 170.793042 375.296599 168.401806 
L 381.140979 160.687578 
Q 382.952605 158.296341 380.561369 156.484715 
L 370.418541 148.800402 
Q 368.027305 146.988776 366.215679 149.380012 
L 360.371298 157.094241 
Q 358.559672 159.485477 360.950909 161.297103 
z
" style="fill:#ffffff;stroke:#ffffff;stroke-linejoin:miter;"/>
    </g>
    <g clip-path="url(#pf6cf05680d)">
     <!-- 21 -->
     <g style="fill:#ff0000;" transform="translate(364.018406 157.248192)rotate(-322.852047)scale(0.1 -0.1)">
      <use xlink:href="#DejaVuSans-50"/>
      <use x="63.623047" xlink:href="#DejaVuSans-49"/>
     </g>
    </g>
   </g>
   <g id="text_23">
    <g id="patch_24">
     <path clip-path="url(#pf6cf05680d)" d="M 282.39391 189.499799 
L 294.996107 191.263388 
Q 297.967156 191.679165 298.382933 188.708117 
L 299.724248 179.12339 
Q 300.140025 176.152342 297.168977 175.736565 
L 284.566779 173.972976 
Q 281.595731 173.557198 281.179954 176.528247 
L 279.838639 186.112973 
Q 279.422861 189.084022 282.39391 189.499799 
z
" style="fill:#ffffff;stroke:#ffffff;stroke-linejoin:miter;"/>
    </g>
    <g clip-path="url(#pf6cf05680d)">
     <!-- 22 -->
     <g style="fill:#ff0000;" transform="translate(283.097916 184.469133)rotate(-352.033595)scale(0.1 -0.1)">
      <use xlink:href="#DejaVuSans-50"/>
      <use x="63.623047" xlink:href="#DejaVuSans-50"/>
     </g>
    </g>
   </g>
   <g id="text_24">
    <g id="patch_25">
     <path clip-path="url(#pf6cf05680d)" d="M 430.057672 260.79188 
L 432.618827 248.327286 
Q 433.222636 245.388678 430.284028 244.78487 
L 420.803957 242.836957 
Q 417.86535 242.233149 417.261541 245.171756 
L 414.700386 257.63635 
Q 414.096577 260.574958 417.035185 261.178767 
L 426.515255 263.126679 
Q 429.453863 263.730488 430.057672 260.79188 
z
" style="fill:#ffffff;stroke:#ffffff;stroke-linejoin:miter;"/>
    </g>
    <g clip-path="url(#pf6cf05680d)">
     <!-- 23 -->
     <g style="fill:#ff0000;" transform="translate(425.081935 259.769494)rotate(-78.388789)scale(0.1 -0.1)">
      <use xlink:href="#DejaVuSans-50"/>
      <use x="63.623047" xlink:href="#DejaVuSans-51"/>
     </g>
    </g>
   </g>
   <g id="text_25">
    <g id="patch_26">
     <path clip-path="url(#pf6cf05680d)" d="M 340.677447 181.543525 
L 352.771046 185.502122 
Q 355.622189 186.435387 356.555454 183.584244 
L 359.566204 174.386337 
Q 360.499469 171.535194 357.648326 170.60193 
L 345.554727 166.643332 
Q 342.703584 165.710067 341.770319 168.561211 
L 338.759569 177.759117 
Q 337.826304 180.61026 340.677447 181.543525 
z
" style="fill:#ffffff;stroke:#ffffff;stroke-linejoin:miter;"/>
    </g>
    <g clip-path="url(#pf6cf05680d)">
     <!-- 24 -->
     <g style="fill:#ff0000;" transform="translate(342.257678 176.715886)rotate(-341.875176)scale(0.1 -0.1)">
      <use xlink:href="#DejaVuSans-50"/>
      <use x="63.623047" xlink:href="#DejaVuSans-52"/>
     </g>
    </g>
   </g>
   <g id="text_26">
    <g id="patch_27">
     <path clip-path="url(#pf6cf05680d)" d="M 275.257424 145.209913 
L 286.732416 150.70993 
Q 289.437719 152.006594 290.734383 149.301291 
L 294.917475 140.573872 
Q 296.214139 137.868569 293.508836 136.571905 
L 282.033845 131.071889 
Q 279.328542 129.775225 278.031878 132.480527 
L 273.848786 141.207946 
Q 272.552121 143.913249 275.257424 145.209913 
z
" style="fill:#ffffff;stroke:#ffffff;stroke-linejoin:miter;"/>
    </g>
    <g clip-path="url(#pf6cf05680d)">
     <!-- 25 -->
     <g style="fill:#ff0000;" transform="translate(277.452973 140.629215)rotate(-334.391384)scale(0.1 -0.1)">
      <use xlink:href="#DejaVuSans-50"/>
      <use x="63.623047" xlink:href="#DejaVuSans-53"/>
     </g>
    </g>
   </g>
   <g id="text_27">
    <g id="patch_28">
     <path clip-path="url(#pf6cf05680d)" d="M 335.30246 250.608359 
L 346.565953 244.687265 
Q 349.221394 243.291329 347.825458 240.635889 
L 343.322111 232.069328 
Q 341.926176 229.413887 339.270735 230.809823 
L 328.007242 236.730917 
Q 325.351802 238.126852 326.747738 240.782293 
L 331.251084 249.348854 
Q 332.64702 252.004295 335.30246 250.608359 
z
" style="fill:#ffffff;stroke:#ffffff;stroke-linejoin:miter;"/>
    </g>
    <g clip-path="url(#pf6cf05680d)">
     <!-- 26 -->
     <g style="fill:#ff0000;" transform="translate(332.938821 246.11209)rotate(-27.730409)scale(0.1 -0.1)">
      <use xlink:href="#DejaVuSans-50"/>
      <use x="63.623047" xlink:href="#DejaVuSans-54"/>
     </g>
    </g>
   </g>
   <g id="text_28">
    <g id="patch_29">
     <path clip-path="url(#pf6cf05680d)" d="M 117.797539 264.160935 
L 122.299951 252.25909 
Q 123.361423 249.453155 120.555487 248.391682 
L 111.503421 244.967328 
Q 108.697485 243.905856 107.636013 246.711792 
L 103.133601 258.613637 
Q 102.072129 261.419573 104.878065 262.481045 
L 113.930131 265.905399 
Q 116.736067 266.966871 117.797539 264.160935 
z
" style="fill:#ffffff;stroke:#ffffff;stroke-linejoin:miter;"/>
    </g>
    <g clip-path="url(#pf6cf05680d)">
     <!-- 27 -->
     <g style="fill:#ff0000;" transform="translate(113.046447 262.36362)rotate(-69.278606)scale(0.1 -0.1)">
      <use xlink:href="#DejaVuSans-50"/>
      <use x="63.623047" xlink:href="#DejaVuSans-55"/>
     </g>
    </g>
   </g>
   <g id="text_29">
    <g id="patch_30">
     <path clip-path="url(#pf6cf05680d)" d="M 223.942987 159.758012 
L 235.297501 154.013392 
Q 237.9744 152.659062 236.620069 149.982163 
L 232.250942 141.346375 
Q 230.896611 138.669476 228.219712 140.023807 
L 216.865199 145.768426 
Q 214.1883 147.122756 215.54263 149.799655 
L 219.911757 158.435443 
Q 221.266088 161.112342 223.942987 159.758012 
z
" style="fill:#ffffff;stroke:#ffffff;stroke-linejoin:miter;"/>
    </g>
    <g clip-path="url(#pf6cf05680d)">
     <!-- 28 -->
     <g style="fill:#ff0000;" transform="translate(221.649795 155.225408)rotate(-26.836339)scale(0.1 -0.1)">
      <use xlink:href="#DejaVuSans-50"/>
      <use x="63.623047" xlink:href="#DejaVuSans-56"/>
     </g>
    </g>
   </g>
   <g id="text_30">
    <g id="patch_31">
     <path clip-path="url(#pf6cf05680d)" d="M 135.612779 170.183267 
L 139.79213 182.202362 
Q 140.777439 185.03594 143.611018 184.050631 
L 152.75226 180.871984 
Q 155.585838 179.886675 154.600529 177.053097 
L 150.421178 165.034002 
Q 149.435869 162.200423 146.602291 163.185732 
L 137.461049 166.364379 
Q 134.62747 167.349688 135.612779 170.183267 
z
" style="fill:#ffffff;stroke:#ffffff;stroke-linejoin:miter;"/>
    </g>
    <g clip-path="url(#pf6cf05680d)">
     <!-- 29 -->
     <g style="fill:#ff0000;" transform="translate(140.410677 168.514913)rotate(-289.17389)scale(0.1 -0.1)">
      <use xlink:href="#DejaVuSans-50"/>
      <use x="63.623047" xlink:href="#DejaVuSans-57"/>
     </g>
    </g>
   </g>
   <g id="text_31">
    <g id="patch_32">
     <path clip-path="url(#pf6cf05680d)" d="M 269.470805 247.360557 
L 280.334067 253.987408 
Q 282.89515 255.549731 284.457473 252.988647 
L 289.497591 244.726486 
Q 291.059913 242.165402 288.49883 240.60308 
L 277.635568 233.976228 
Q 275.074484 232.413906 273.512162 234.974989 
L 268.472044 243.237151 
Q 266.909721 245.798234 269.470805 247.360557 
z
" style="fill:#ffffff;stroke:#ffffff;stroke-linejoin:miter;"/>
    </g>
    <g clip-path="url(#pf6cf05680d)">
     <!-- 30 -->
     <g style="fill:#ff0000;" transform="translate(272.116175 243.024056)rotate(-328.615803)scale(0.1 -0.1)">
      <use xlink:href="#DejaVuSans-51"/>
      <use x="63.623047" xlink:href="#DejaVuSans-48"/>
     </g>
    </g>
   </g>
   <g id="text_32">
    <g id="patch_33">
     <path clip-path="url(#pf6cf05680d)" d="M 200.761032 176.455759 
L 212.903704 172.650349 
Q 215.766417 171.7532 214.869267 168.890487 
L 211.975025 159.655258 
Q 211.077875 156.792545 208.215162 157.689695 
L 196.072491 161.495105 
Q 193.209778 162.392255 194.106928 165.254967 
L 197.00117 174.490197 
Q 197.89832 177.352909 200.761032 176.455759 
z
" style="fill:#ffffff;stroke:#ffffff;stroke-linejoin:miter;"/>
    </g>
    <g clip-path="url(#pf6cf05680d)">
     <!-- 31 -->
     <g style="fill:#ff0000;" transform="translate(199.241952 171.608531)rotate(-17.400547)scale(0.1 -0.1)">
      <use xlink:href="#DejaVuSans-51"/>
      <use x="63.623047" xlink:href="#DejaVuSans-49"/>
     </g>
    </g>
   </g>
   <g id="text_33">
    <g id="patch_34">
     <path clip-path="url(#pf6cf05680d)" d="M 131.067499 126.669017 
L 132.820548 139.272685 
Q 133.233841 142.24408 136.205236 141.830788 
L 145.79108 140.497489 
Q 148.762476 140.084196 148.349183 137.112801 
L 146.596134 124.509133 
Q 146.182842 121.537738 143.211446 121.951031 
L 133.625602 123.284329 
Q 130.654207 123.697622 131.067499 126.669017 
z
" style="fill:#ffffff;stroke:#ffffff;stroke-linejoin:miter;"/>
    </g>
    <g clip-path="url(#pf6cf05680d)">
     <!-- 32 -->
     <g style="fill:#ff0000;" transform="translate(136.098752 125.969218)rotate(-277.918489)scale(0.1 -0.1)">
      <use xlink:href="#DejaVuSans-51"/>
      <use x="63.623047" xlink:href="#DejaVuSans-50"/>
     </g>
    </g>
   </g>
   <g id="text_34">
    <g id="patch_35">
     <path clip-path="url(#pf6cf05680d)" d="M 182.546291 230.923178 
L 189.772029 241.397639 
Q 191.475543 243.86706 193.944964 242.163546 
L 201.911419 236.667939 
Q 204.38084 234.964425 202.677327 232.495004 
L 195.451588 222.020543 
Q 193.748074 219.551122 191.278653 221.254636 
L 183.312198 226.750243 
Q 180.842777 228.453757 182.546291 230.923178 
z
" style="fill:#ffffff;stroke:#ffffff;stroke-linejoin:miter;"/>
    </g>
    <g clip-path="url(#pf6cf05680d)">
     <!-- 33 -->
     <g style="fill:#ff0000;" transform="translate(186.727587 228.038738)rotate(-304.599598)scale(0.1 -0.1)">
      <use xlink:href="#DejaVuSans-51"/>
      <use x="63.623047" xlink:href="#DejaVuSans-51"/>
     </g>
    </g>
   </g>
   <g id="text_35">
    <g id="patch_36">
     <path clip-path="url(#pf6cf05680d)" d="M 192.309908 234.269278 
L 200.546155 224.569286 
Q 202.487903 222.282451 200.201068 220.340703 
L 192.823642 214.076543 
Q 190.536807 212.134795 188.595059 214.421631 
L 180.358812 224.121623 
Q 178.417064 226.408458 180.703899 228.350206 
L 188.081325 234.614366 
Q 190.36816 236.556114 192.309908 234.269278 
z
" style="fill:#ffffff;stroke:#ffffff;stroke-linejoin:miter;"/>
    </g>
    <g clip-path="url(#pf6cf05680d)">
     <!-- 34 -->
     <g style="fill:#ff0000;" transform="translate(188.437772 230.981454)rotate(-49.665471)scale(0.1 -0.1)">
      <use xlink:href="#DejaVuSans-51"/>
      <use x="63.623047" xlink:href="#DejaVuSans-52"/>
     </g>
    </g>
   </g>
   <g id="text_36">
    <g id="patch_37">
     <path clip-path="url(#pf6cf05680d)" d="M 115.058768 256.486108 
L 118.859333 244.341919 
Q 119.75534 241.478849 116.89227 240.582841 
L 107.655886 237.692284 
Q 104.792816 236.796276 103.896809 239.659347 
L 100.096244 251.803536 
Q 99.200236 254.666606 102.063307 255.562613 
L 111.29969 258.453171 
Q 114.16276 259.349178 115.058768 256.486108 
z
" style="fill:#ffffff;stroke:#ffffff;stroke-linejoin:miter;"/>
    </g>
    <g clip-path="url(#pf6cf05680d)">
     <!-- 35 -->
     <g style="fill:#ff0000;" transform="translate(110.210934 254.968962)rotate(-72.622313)scale(0.1 -0.1)">
      <use xlink:href="#DejaVuSans-51"/>
      <use x="63.623047" xlink:href="#DejaVuSans-53"/>
     </g>
    </g>
   </g>
   <g id="text_37">
    <g id="patch_38">
     <path clip-path="url(#pf6cf05680d)" d="M 237.69804 326.798203 
L 250.374994 325.693453 
Q 253.363667 325.433001 253.103215 322.444329 
L 252.262987 312.802746 
Q 252.002535 309.814073 249.013862 310.074525 
L 236.336909 311.179274 
Q 233.348236 311.439726 233.608688 314.428399 
L 234.448916 324.069982 
Q 234.709368 327.058654 237.69804 326.798203 
z
" style="fill:#ffffff;stroke:#ffffff;stroke-linejoin:miter;"/>
    </g>
    <g clip-path="url(#pf6cf05680d)">
     <!-- 36 -->
     <g style="fill:#ff0000;" transform="translate(237.257036 321.737695)rotate(-4.980532)scale(0.1 -0.1)">
      <use xlink:href="#DejaVuSans-51"/>
      <use x="63.623047" xlink:href="#DejaVuSans-54"/>
     </g>
    </g>
   </g>
   <g id="text_38">
    <g id="patch_39">
     <path clip-path="url(#pf6cf05680d)" d="M 170.880567 251.419012 
L 178.955225 241.584098 
Q 180.858877 239.265454 178.540233 237.361802 
L 171.060192 231.220542 
Q 168.741548 229.31689 166.837896 231.635533 
L 158.763238 241.470447 
Q 156.859586 243.789091 159.17823 245.692743 
L 166.658271 251.834004 
Q 168.976915 253.737656 170.880567 251.419012 
z
" style="fill:#ffffff;stroke:#ffffff;stroke-linejoin:miter;"/>
    </g>
    <g clip-path="url(#pf6cf05680d)">
     <!-- 37 -->
     <g style="fill:#ff0000;" transform="translate(166.954572 248.195693)rotate(-50.613332)scale(0.1 -0.1)">
      <use xlink:href="#DejaVuSans-51"/>
      <use x="63.623047" xlink:href="#DejaVuSans-55"/>
     </g>
    </g>
   </g>
   <g id="text_39">
    <g id="patch_40">
     <path clip-path="url(#pf6cf05680d)" d="M 110.721327 213.949276 
L 112.887019 201.409922 
Q 113.397595 198.453689 110.441362 197.943114 
L 100.904431 196.295975 
Q 97.948199 195.7854 97.437623 198.741633 
L 95.271931 211.280987 
Q 94.761356 214.23722 97.717589 214.747795 
L 107.254519 216.394934 
Q 110.210752 216.905509 110.721327 213.949276 
z
" style="fill:#ffffff;stroke:#ffffff;stroke-linejoin:miter;"/>
    </g>
    <g clip-path="url(#pf6cf05680d)">
     <!-- 38 -->
     <g style="fill:#ff0000;" transform="translate(105.715748 213.084755)rotate(-80.201025)scale(0.1 -0.1)">
      <use xlink:href="#DejaVuSans-51"/>
      <use x="63.623047" xlink:href="#DejaVuSans-56"/>
     </g>
    </g>
   </g>
   <g id="text_40">
    <g id="patch_41">
     <path clip-path="url(#pf6cf05680d)" d="M 153.78366 315.739486 
L 165.695818 311.264431 
Q 168.504186 310.209409 167.449163 307.401041 
L 164.045616 298.341131 
Q 162.990593 295.532764 160.182226 296.587787 
L 148.270067 301.062841 
Q 145.4617 302.117864 146.516723 304.926231 
L 149.92027 313.986141 
Q 150.975293 316.794509 153.78366 315.739486 
z
" style="fill:#ffffff;stroke:#ffffff;stroke-linejoin:miter;"/>
    </g>
    <g clip-path="url(#pf6cf05680d)">
     <!-- 39 -->
     <g style="fill:#ff0000;" transform="translate(151.997265 310.984277)rotate(-20.589753)scale(0.1 -0.1)">
      <use xlink:href="#DejaVuSans-51"/>
      <use x="63.623047" xlink:href="#DejaVuSans-57"/>
     </g>
    </g>
   </g>
   <g id="text_41">
    <g id="patch_42">
     <path clip-path="url(#pf6cf05680d)" d="M 219.601008 152.088964 
L 231.532726 147.666326 
Q 234.345705 146.623661 233.30304 143.810682 
L 229.939359 134.735896 
Q 228.896694 131.922917 226.083715 132.965582 
L 214.151997 137.388219 
Q 211.339018 138.430884 212.381683 141.243863 
L 215.745364 150.31865 
Q 216.788029 153.131629 219.601008 152.088964 
z
" style="fill:#ffffff;stroke:#ffffff;stroke-linejoin:miter;"/>
    </g>
    <g clip-path="url(#pf6cf05680d)">
     <!-- 40 -->
     <g style="fill:#ff0000;" transform="translate(217.835537 147.325946)rotate(-20.337842)scale(0.1 -0.1)">
      <use xlink:href="#DejaVuSans-52"/>
      <use x="63.623047" xlink:href="#DejaVuSans-48"/>
     </g>
    </g>
   </g>
   <g id="text_42">
    <g id="patch_43">
     <path clip-path="url(#pf6cf05680d)" d="M 346.972955 210.260854 
L 352.141456 221.888933 
Q 353.359963 224.630327 356.101357 223.41182 
L 364.945208 219.480865 
Q 367.686602 218.262358 366.468095 215.520964 
L 361.299594 203.892885 
Q 360.081087 201.151491 357.339693 202.369998 
L 348.495842 206.300953 
Q 345.754448 207.51946 346.972955 210.260854 
z
" style="fill:#ffffff;stroke:#ffffff;stroke-linejoin:miter;"/>
    </g>
    <g clip-path="url(#pf6cf05680d)">
     <!-- 41 -->
     <g style="fill:#ff0000;" transform="translate(351.614763 208.197642)rotate(-293.964405)scale(0.1 -0.1)">
      <use xlink:href="#DejaVuSans-52"/>
      <use x="63.623047" xlink:href="#DejaVuSans-49"/>
     </g>
    </g>
   </g>
   <g id="text_43">
    <g id="patch_44">
     <path clip-path="url(#pf6cf05680d)" d="M 283.300616 146.020383 
L 292.269176 136.993171 
Q 294.383571 134.864948 292.255348 132.750553 
L 285.389613 125.929426 
Q 283.26139 123.81503 281.146994 125.943253 
L 272.178434 134.970465 
Q 270.064039 137.098688 272.192262 139.213083 
L 279.057998 146.034211 
Q 281.18622 148.148606 283.300616 146.020383 
z
" style="fill:#ffffff;stroke:#ffffff;stroke-linejoin:miter;"/>
    </g>
    <g clip-path="url(#pf6cf05680d)">
     <!-- 42 -->
     <g style="fill:#ff0000;" transform="translate(279.697047 142.440227)rotate(-45.186738)scale(0.1 -0.1)">
      <use xlink:href="#DejaVuSans-52"/>
      <use x="63.623047" xlink:href="#DejaVuSans-50"/>
     </g>
    </g>
   </g>
   <g id="text_44">
    <g id="patch_45">
     <path clip-path="url(#pf6cf05680d)" d="M 209.293486 106.758241 
L 221.598117 110.001958 
Q 224.499012 110.766685 225.263739 107.865789 
L 227.730779 98.507381 
Q 228.495506 95.606486 225.594611 94.841759 
L 213.289981 91.598042 
Q 210.389086 90.833315 209.624359 93.734211 
L 207.157318 103.092619 
Q 206.392591 105.993514 209.293486 106.758241 
z
" style="fill:#ffffff;stroke:#ffffff;stroke-linejoin:miter;"/>
    </g>
    <g clip-path="url(#pf6cf05680d)">
     <!-- 43 -->
     <g style="fill:#ff0000;" transform="translate(210.588344 101.846361)rotate(-345.231809)scale(0.1 -0.1)">
      <use xlink:href="#DejaVuSans-52"/>
      <use x="63.623047" xlink:href="#DejaVuSans-51"/>
     </g>
    </g>
   </g>
   <g id="text_45">
    <g id="patch_46">
     <path clip-path="url(#pf6cf05680d)" d="M 275.848549 209.084052 
L 279.76398 196.976409 
Q 280.687069 194.121955 277.832614 193.198866 
L 268.624026 190.220946 
Q 265.769572 189.297858 264.846484 192.152312 
L 260.931052 204.259955 
Q 260.007964 207.114409 262.862418 208.037497 
L 272.071006 211.015418 
Q 274.925461 211.938506 275.848549 209.084052 
z
" style="fill:#ffffff;stroke:#ffffff;stroke-linejoin:miter;"/>
    </g>
    <g clip-path="url(#pf6cf05680d)">
     <!-- 44 -->
     <g style="fill:#ff0000;" transform="translate(271.015304 207.521052)rotate(-72.079563)scale(0.1 -0.1)">
      <use xlink:href="#DejaVuSans-52"/>
      <use x="63.623047" xlink:href="#DejaVuSans-52"/>
     </g>
    </g>
   </g>
   <g id="text_46">
    <g id="patch_47">
     <path clip-path="url(#pf6cf05680d)" d="M 266.107372 239.623585 
L 276.704128 246.668752 
Q 279.202381 248.329696 280.863324 245.831443 
L 286.221596 237.771975 
Q 287.88254 235.273722 285.384287 233.612779 
L 274.787531 226.567611 
Q 272.289278 224.906668 270.628335 227.404921 
L 265.270062 235.464389 
Q 263.609119 237.962642 266.107372 239.623585 
z
" style="fill:#ffffff;stroke:#ffffff;stroke-linejoin:miter;"/>
    </g>
    <g clip-path="url(#pf6cf05680d)">
     <!-- 45 -->
     <g style="fill:#ff0000;" transform="translate(268.91973 235.39347)rotate(-326.382375)scale(0.1 -0.1)">
      <use xlink:href="#DejaVuSans-52"/>
      <use x="63.623047" xlink:href="#DejaVuSans-53"/>
     </g>
    </g>
   </g>
   <g id="text_47">
    <g id="patch_48">
     <path clip-path="url(#pf6cf05680d)" d="M 196.030131 168.351693 
L 208.633207 166.594395 
Q 211.604463 166.1801 211.190169 163.208845 
L 209.853638 153.62345 
Q 209.439344 150.652195 206.468088 151.066489 
L 193.865012 152.823787 
Q 190.893756 153.238081 191.308051 156.209337 
L 192.644581 165.794732 
Q 193.058876 168.765987 196.030131 168.351693 
z
" style="fill:#ffffff;stroke:#ffffff;stroke-linejoin:miter;"/>
    </g>
    <g clip-path="url(#pf6cf05680d)">
     <!-- 46 -->
     <g style="fill:#ff0000;" transform="translate(195.328636 163.320676)rotate(-7.937806)scale(0.1 -0.1)">
      <use xlink:href="#DejaVuSans-52"/>
      <use x="63.623047" xlink:href="#DejaVuSans-54"/>
     </g>
    </g>
   </g>
   <g id="text_48">
    <g id="patch_49">
     <path clip-path="url(#pf6cf05680d)" d="M 128.023638 118.995348 
L 129.3183 131.654316 
Q 129.623525 134.638748 132.607958 134.333524 
L 142.235861 133.348855 
Q 145.220294 133.04363 144.915069 130.059198 
L 143.620407 117.40023 
Q 143.315182 114.415797 140.330749 114.721022 
L 130.702845 115.70569 
Q 127.718413 116.010915 128.023638 118.995348 
z
" style="fill:#ffffff;stroke:#ffffff;stroke-linejoin:miter;"/>
    </g>
    <g clip-path="url(#pf6cf05680d)">
     <!-- 47 -->
     <g style="fill:#ff0000;" transform="translate(133.076966 118.478532)rotate(-275.839471)scale(0.1 -0.1)">
      <use xlink:href="#DejaVuSans-52"/>
      <use x="63.623047" xlink:href="#DejaVuSans-55"/>
     </g>
    </g>
   </g>
   <g id="text_49">
    <g id="patch_50">
     <path clip-path="url(#pf6cf05680d)" d="M 179.335387 223.258148 
L 186.243873 233.944516 
Q 187.872592 236.463896 190.391971 234.835176 
L 198.519595 229.58086 
Q 201.038974 227.95214 199.410255 225.432761 
L 192.501769 214.746393 
Q 190.87305 212.227013 188.353671 213.855733 
L 180.226047 219.11005 
Q 177.706668 220.738769 179.335387 223.258148 
z
" style="fill:#ffffff;stroke:#ffffff;stroke-linejoin:miter;"/>
    </g>
    <g clip-path="url(#pf6cf05680d)">
     <!-- 48 -->
     <g style="fill:#ff0000;" transform="translate(183.601274 220.500353)rotate(-302.881716)scale(0.1 -0.1)">
      <use xlink:href="#DejaVuSans-52"/>
      <use x="63.623047" xlink:href="#DejaVuSans-56"/>
     </g>
    </g>
   </g>
   <g id="text_50">
    <g id="patch_51">
     <path clip-path="url(#pf6cf05680d)" d="M 325.035163 229.787028 
L 332.771537 239.890202 
Q 334.595437 242.27209 336.977325 240.448191 
L 344.661394 234.564214 
Q 347.043282 232.740315 345.219383 230.358427 
L 337.483008 220.255252 
Q 335.659109 217.873364 333.277221 219.697264 
L 325.593151 225.58124 
Q 323.211263 227.40514 325.035163 229.787028 
z
" style="fill:#ffffff;stroke:#ffffff;stroke-linejoin:miter;"/>
    </g>
    <g clip-path="url(#pf6cf05680d)">
     <!-- 49 -->
     <g style="fill:#ff0000;" transform="translate(329.068245 226.698748)rotate(-307.442616)scale(0.1 -0.1)">
      <use xlink:href="#DejaVuSans-52"/>
      <use x="63.623047" xlink:href="#DejaVuSans-57"/>
     </g>
    </g>
   </g>
   <g id="text_51">
    <g id="patch_52">
     <path clip-path="url(#pf6cf05680d)" d="M 260.296555 195.845101 
L 269.213617 204.923186 
Q 271.315871 207.063403 273.456088 204.961148 
L 280.360516 198.179188 
Q 282.500732 196.076934 280.398478 193.936718 
L 271.481416 184.858632 
Q 269.379162 182.718416 267.238945 184.82067 
L 260.334517 191.60263 
Q 258.194301 193.704884 260.296555 195.845101 
z
" style="fill:#ffffff;stroke:#ffffff;stroke-linejoin:miter;"/>
    </g>
    <g clip-path="url(#pf6cf05680d)">
     <!-- 50 -->
     <g style="fill:#ff0000;" transform="translate(263.920432 192.285502)rotate(-314.487322)scale(0.1 -0.1)">
      <use xlink:href="#DejaVuSans-53"/>
      <use x="63.623047" xlink:href="#DejaVuSans-48"/>
     </g>
    </g>
   </g>
   <g id="text_52">
    <g id="patch_53">
     <path clip-path="url(#pf6cf05680d)" d="M 315.602069 301.298962 
L 328.12637 303.55007 
Q 331.079054 304.080783 331.609768 301.128099 
L 333.321871 291.602617 
Q 333.852584 288.649933 330.8999 288.11922 
L 318.375598 285.868112 
Q 315.422914 285.337398 314.8922 288.290082 
L 313.180098 297.815564 
Q 312.649384 300.768249 315.602069 301.298962 
z
" style="fill:#ffffff;stroke:#ffffff;stroke-linejoin:miter;"/>
    </g>
    <g clip-path="url(#pf6cf05680d)">
     <!-- 51 -->
     <g style="fill:#ff0000;" transform="translate(316.500688 296.299391)rotate(-349.810499)scale(0.1 -0.1)">
      <use xlink:href="#DejaVuSans-53"/>
      <use x="63.623047" xlink:href="#DejaVuSans-49"/>
     </g>
    </g>
   </g>
   <g id="text_53">
    <g id="patch_54">
     <path clip-path="url(#pf6cf05680d)" d="M 186.167739 120.840261 
L 196.656104 128.045803 
Q 199.128803 129.744555 200.827555 127.271856 
L 206.307801 119.294826 
Q 208.006553 116.822127 205.533854 115.123375 
L 195.04549 107.917833 
Q 192.572791 106.219081 190.874038 108.69178 
L 185.393792 116.66881 
Q 183.69504 119.141509 186.167739 120.840261 
z
" style="fill:#ffffff;stroke:#ffffff;stroke-linejoin:miter;"/>
    </g>
    <g clip-path="url(#pf6cf05680d)">
     <!-- 52 -->
     <g style="fill:#ff0000;" transform="translate(189.044116 116.653415)rotate(-325.510806)scale(0.1 -0.1)">
      <use xlink:href="#DejaVuSans-53"/>
      <use x="63.623047" xlink:href="#DejaVuSans-50"/>
     </g>
    </g>
   </g>
   <g id="text_54">
    <g id="patch_55">
     <path clip-path="url(#pf6cf05680d)" d="M 255.597345 225.223244 
L 257.426489 212.630395 
Q 257.857722 209.66155 254.888877 209.230318 
L 245.311261 207.839144 
Q 242.342416 207.407911 241.911184 210.376756 
L 240.082039 222.969605 
Q 239.650807 225.93845 242.619651 226.369682 
L 252.197268 227.760856 
Q 255.166113 228.192089 255.597345 225.223244 
z
" style="fill:#ffffff;stroke:#ffffff;stroke-linejoin:miter;"/>
    </g>
    <g clip-path="url(#pf6cf05680d)">
     <!-- 53 -->
     <g style="fill:#ff0000;" transform="translate(250.570411 224.493069)rotate(-81.735437)scale(0.1 -0.1)">
      <use xlink:href="#DejaVuSans-53"/>
      <use x="63.623047" xlink:href="#DejaVuSans-51"/>
     </g>
    </g>
   </g>
   <g id="text_55">
    <g id="patch_56">
     <path clip-path="url(#pf6cf05680d)" d="M 174.285722 179.779216 
L 179.20309 191.515703 
Q 180.362391 194.282654 183.129342 193.123353 
L 192.055644 189.3834 
Q 194.822595 188.224099 193.663294 185.457148 
L 188.745926 173.720661 
Q 187.586625 170.953709 184.819674 172.11301 
L 175.893372 175.852964 
Q 173.126421 177.012264 174.285722 179.779216 
z
" style="fill:#ffffff;stroke:#ffffff;stroke-linejoin:miter;"/>
    </g>
    <g clip-path="url(#pf6cf05680d)">
     <!-- 54 -->
     <g style="fill:#ff0000;" transform="translate(178.970805 177.816254)rotate(-292.732772)scale(0.1 -0.1)">
      <use xlink:href="#DejaVuSans-53"/>
      <use x="63.623047" xlink:href="#DejaVuSans-52"/>
     </g>
    </g>
   </g>
   <g id="PathCollection_1">
    <defs>
     <path d="M 0 8.660254 
C 2.296726 8.660254 4.499694 7.747755 6.123724 6.123724 
C 7.747755 4.499694 8.660254 2.296726 8.660254 0 
C 8.660254 -2.296726 7.747755 -4.499694 6.123724 -6.123724 
C 4.499694 -7.747755 2.296726 -8.660254 0 -8.660254 
C -2.296726 -8.660254 -4.499694 -7.747755 -6.123724 -6.123724 
C -7.747755 -4.499694 -8.660254 -2.296726 -8.660254 0 
C -8.660254 2.296726 -7.747755 4.499694 -6.123724 6.123724 
C -4.499694 7.747755 -2.296726 8.660254 0 8.660254 
z
" id="m9d60077587" style="stroke:#0000ff;"/>
    </defs>
    <g clip-path="url(#pf6cf05680d)">
     <use style="fill:#0000ff;stroke:#0000ff;" x="230.4" xlink:href="#m9d60077587" y="172.8"/>
     <use style="fill:#0000ff;stroke:#0000ff;" x="20.945455" xlink:href="#m9d60077587" y="236.618182"/>
     <use style="fill:#0000ff;stroke:#0000ff;" x="437.69522" xlink:href="#m9d60077587" y="198.981818"/>
     <use style="fill:#0000ff;stroke:#0000ff;" x="148.345642" xlink:href="#m9d60077587" y="180.981818"/>
     <use style="fill:#0000ff;stroke:#0000ff;" x="77.08791" xlink:href="#m9d60077587" y="329.890909"/>
     <use style="fill:#0000ff;stroke:#0000ff;" x="303.817057" xlink:href="#m9d60077587" y="118.8"/>
     <use style="fill:#0000ff;stroke:#0000ff;" x="141.867666" xlink:href="#m9d60077587" y="166.254545"/>
     <use style="fill:#0000ff;stroke:#0000ff;" x="409.623993" xlink:href="#m9d60077587" y="306.981818"/>
     <use style="fill:#0000ff;stroke:#0000ff;" x="260.630553" xlink:href="#m9d60077587" y="153.163636"/>
     <use style="fill:#0000ff;stroke:#0000ff;" x="131.07104" xlink:href="#m9d60077587" y="82.8"/>
     <use style="fill:#0000ff;stroke:#0000ff;" x="236.877976" xlink:href="#m9d60077587" y="282.436364"/>
    </g>
   </g>
   <g id="line2d_1">
    <path clip-path="url(#pf6cf05680d)" d="M 0 172.8 
L 460.8 172.8 
" style="fill:none;stroke:#ffa500;stroke-dasharray:1.85,0.8;stroke-dashoffset:0;stroke-width:0.5;"/>
   </g>
   <g id="line2d_2">
    <path clip-path="url(#pf6cf05680d)" d="M 230.4 345.6 
L 230.4 0 
" style="fill:none;stroke:#ffa500;stroke-dasharray:1.85,0.8;stroke-dashoffset:0;stroke-width:0.5;"/>
   </g>
   <g id="text_56">
    <g clip-path="url(#pf6cf05680d)">
     <!-- 0 -->
     <g style="fill:#ffffff;" transform="translate(226.5825 176.11125)scale(0.12 -0.12)">
      <use xlink:href="#DejaVuSans-48"/>
     </g>
    </g>
   </g>
   <g id="text_57">
    <g clip-path="url(#pf6cf05680d)">
     <!-- 1 -->
     <g style="fill:#ffffff;" transform="translate(17.127955 239.929432)scale(0.12 -0.12)">
      <use xlink:href="#DejaVuSans-49"/>
     </g>
    </g>
   </g>
   <g id="text_58">
    <g clip-path="url(#pf6cf05680d)">
     <!-- 2 -->
     <g style="fill:#ffffff;" transform="translate(433.87772 202.293068)scale(0.12 -0.12)">
      <use xlink:href="#DejaVuSans-50"/>
     </g>
    </g>
   </g>
   <g id="text_59">
    <g clip-path="url(#pf6cf05680d)">
     <!-- 3 -->
     <g style="fill:#ffffff;" transform="translate(144.528142 184.293068)scale(0.12 -0.12)">
      <use xlink:href="#DejaVuSans-51"/>
     </g>
    </g>
   </g>
   <g id="text_60">
    <g clip-path="url(#pf6cf05680d)">
     <!-- 4 -->
     <g style="fill:#ffffff;" transform="translate(73.27041 333.202159)scale(0.12 -0.12)">
      <use xlink:href="#DejaVuSans-52"/>
     </g>
    </g>
   </g>
   <g id="text_61">
    <g clip-path="url(#pf6cf05680d)">
     <!-- 5 -->
     <g style="fill:#ffffff;" transform="translate(299.999557 122.11125)scale(0.12 -0.12)">
      <use xlink:href="#DejaVuSans-53"/>
     </g>
    </g>
   </g>
   <g id="text_62">
    <g clip-path="url(#pf6cf05680d)">
     <!-- 6 -->
     <g style="fill:#ffffff;" transform="translate(138.050166 169.565795)scale(0.12 -0.12)">
      <use xlink:href="#DejaVuSans-54"/>
     </g>
    </g>
   </g>
   <g id="text_63">
    <g clip-path="url(#pf6cf05680d)">
     <!-- 7 -->
     <g style="fill:#ffffff;" transform="translate(405.806493 310.293068)scale(0.12 -0.12)">
      <use xlink:href="#DejaVuSans-55"/>
     </g>
    </g>
   </g>
   <g id="text_64">
    <g clip-path="url(#pf6cf05680d)">
     <!-- 8 -->
     <g style="fill:#ffffff;" transform="translate(256.813053 156.474886)scale(0.12 -0.12)">
      <use xlink:href="#DejaVuSans-56"/>
     </g>
    </g>
   </g>
   <g id="text_65">
    <g clip-path="url(#pf6cf05680d)">
     <!-- 9 -->
     <g style="fill:#ffffff;" transform="translate(127.25354 86.11125)scale(0.12 -0.12)">
      <use xlink:href="#DejaVuSans-57"/>
     </g>
    </g>
   </g>
   <g id="text_66">
    <g clip-path="url(#pf6cf05680d)">
     <!-- 10 -->
     <g style="fill:#ffffff;" transform="translate(229.242976 285.747614)scale(0.12 -0.12)">
      <use xlink:href="#DejaVuSans-49"/>
      <use x="63.623047" xlink:href="#DejaVuSans-48"/>
     </g>
    </g>
   </g>
  </g>
 </g>
 <defs>
  <clipPath id="pf6cf05680d">
   <rect height="345.6" width="460.8" x="0" y="0"/>
  </clipPath>
 </defs>
</svg>
